<?xml version="1.0" encoding="utf-8"?>
<!-- Generator: Adobe Illustrator 23.0.1, SVG Export Plug-In . SVG Version: 6.00 Build 0)  -->
<svg version="1.1" id="レイヤー_1" xmlns="http://www.w3.org/2000/svg" xmlns:xlink="http://www.w3.org/1999/xlink" x="0px"
	 y="0px" viewBox="0 0 1227.6 869.2" style="enable-background:new 0 0 1227.6 869.2;" xml:space="preserve">
<style type="text/css">
	.st0{fill:#D70091;}
	.st1{fill:url(#SVGID_1_);}
	.st2{fill:url(#SVGID_2_);}
</style>
<g>
	<path class="st0" d="M1218.1,411.5l-402-402c-12.7-12.7-33.4-12.7-46.1,0l-57.6,57.6l335.4,335.4c17.7,17.7,17.7,46.4,0,64.1
		L712.4,802l57.6,57.6c12.7,12.7,33.4,12.7,46.1,0l402-402C1230.8,444.9,1230.8,424.3,1218.1,411.5z"/>
	<linearGradient id="SVGID_1_" gradientUnits="userSpaceOnUse" x1="869.17" y1="434.585" x2="-1.818989e-12" y2="434.585">
		<stop  offset="0" style="stop-color:#D10096;stop-opacity:0"/>
		<stop  offset="1" style="stop-color:#D10096"/>
	</linearGradient>
	<path class="st1" d="M859.6,411.5l-402-402c-12.7-12.7-33.4-12.7-46.1,0l-402,402c-12.7,12.7-12.7,33.4,0,46.1l402,402
		c12.7,12.7,33.4,12.7,46.1,0l402-402C872.4,444.9,872.4,424.3,859.6,411.5z"/>
	<g>
		<path class="st0" d="M859.6,411.5L613.8,165.7L368,411.5c-12.7,12.7-12.7,33.4,0,46.1l245.8,245.8l245.8-245.8
			C872.4,444.9,872.4,424.3,859.6,411.5z"/>
		<path class="st0" d="M1038.9,411.5L703.4,76.1l-80.7,80.7l245.8,245.8c8.6,8.6,13.3,19.9,13.3,32c0,12.1-4.7,23.5-13.3,32
			L622.8,712.4l80.7,80.7l335.4-335.4C1051.6,444.9,1051.6,424.3,1038.9,411.5z"/>
	</g>
	<g>
		<g>
			<linearGradient id="SVGID_2_" gradientUnits="userSpaceOnUse" x1="179.2389" y1="434.585" x2="1048.4098" y2="434.585">
				<stop  offset="0" style="stop-color:#D10096;stop-opacity:0"/>
				<stop  offset="1" style="stop-color:#D10096"/>
			</linearGradient>
			<path class="st2" d="M859.6,411.5L524.2,76.1L188.8,411.5c-12.7,12.7-12.7,33.4,0,46.1l335.4,335.4l335.4-335.4
				C872.4,444.9,872.4,424.3,859.6,411.5z M1038.9,411.5l-402-402c-12.7-12.7-33.4-12.7-46.1,0l-57.6,57.6l335.4,335.4
				c8.6,8.6,13.3,19.9,13.3,32c0,12.1-4.7,23.5-13.3,32L533.2,802l57.6,57.6c12.7,12.7,33.4,12.7,46.1,0l402-402
				C1051.6,444.9,1051.6,424.3,1038.9,411.5z"/>
		</g>
	</g>
</g>
</svg>
